<svg xmlns="http://www.w3.org/2000/svg" viewBox="0 0 531.84 180"><defs><style>.cls-1{fill:#98c7e9;}.cls-2{fill:#fff;}.cls-3{fill:#a7ca34;}.cls-4{fill:#29702a;}.cls-5{fill:#653614;}.cls-6{font-size:132.9px;fill:#333;font-family:BenguiatProITC-Medium, Benguiat Pro ITC;font-weight:500;letter-spacing:0.01em;}</style></defs><g id="Layer_2" data-name="Layer 2"><g id="Layer_1-2" data-name="Layer 1"><path class="cls-1" d="M163.06,90.62a72.51,72.51,0,1,1-72.5-72.51A72.5,72.5,0,0,1,163.06,90.62Z"/><path class="cls-2" d="M90.25,164.22a74,74,0,1,1,74-74A74.07,74.07,0,0,1,90.25,164.22Zm0-144.52a70.54,70.54,0,1,0,70.54,70.55A70.62,70.62,0,0,0,90.25,19.7Z"/><path class="cls-3" d="M90.25,0C40.48,0,0,40.26,0,89.75,0,140.36,39.64,180,90.25,180s90.25-39.64,90.25-90.25C180.5,40.26,140,0,90.25,0Zm0,161.87a71.63,71.63,0,1,1,71.62-71.62A71.71,71.71,0,0,1,90.25,161.87Z"/><path class="cls-4" d="M83.09,137.78a13.78,13.78,0,0,1,3.35-1.21c1.12-.1,4.29-.75,4.66-.1s1.67.28,2.23.84.93.56,1.4,1a4.94,4.94,0,0,0,1.86.75,4.36,4.36,0,0,1,1.59.93,3.3,3.3,0,0,0,2.51.65,7.15,7.15,0,0,1,2.51-.09c.94.19,1.68-.93,2.52-.56s1.67,0,1.67.75,1.68,2.23,2.24,2.33a26.09,26.09,0,0,1,3.54.28c.93.28,1-.18,1.11.75s1.22,1.3,0,2.32a23.26,23.26,0,0,1-4.56,2.33,4.07,4.07,0,0,1-3.26,1.21c-1.86-.28-1.77-.75-3.53-.28a42.69,42.69,0,0,1-6.34.56s-1.76-.47-2.51,0-3.26.56-4.56.65-1.77-.93-2.89-.84-1.49,0-2.23.09-1.77.38-2.24-.46a4.76,4.76,0,0,0-2-2.24,3.35,3.35,0,0,0-2.79-.18c-.65.37-2,.47-2.24.84a2.87,2.87,0,0,1-2.79.18c-.65-.55-.19-1.3-1.58-1.21s-1.31-.18-2.42.19-3.08,1-3.17.09-.65-2-.09-2.7.55-2.33,1.21-2.51a6.09,6.09,0,0,1,2.05-.38c.93,0,2.42.1,3-.37a5.79,5.79,0,0,1,2.23-1,4.82,4.82,0,0,1,2-.09,14.49,14.49,0,0,0,2.7.28c.74,0,1.3-.75,2.23-1.21S83.09,137.78,83.09,137.78Z"/><path class="cls-5" d="M87.18,143.19c.77.06,2,0,3,0a1.48,1.48,0,0,0,1.18-1.58c-.18-10.05-1.53-64.9-2.43-89.76-.29-8.2-2-12.3-2-12.3L86.56,50l-.31,91.55S86.62,143.14,87.18,143.19Z"/><path class="cls-4" d="M78.9,55.55a4,4,0,0,0,3.11.62,19.77,19.77,0,0,0,3.35-1s.25.12,1.49.62,3,.25,4.22.25,2.36-1.12,3.48-2,4.59-2.73,5.09-3.72,1.24-3.48.12-3.35-2.73,1-4,.74a1.66,1.66,0,0,1-.87-2.86c1.12-1.11,1.37-3.47,1.49-4.09s-1.74-2.24-1.49-3,1.37-3.73.5-3.6-4-.38-4.47-.87-1.49-3.23-2.11-3-3,2-3.36,3.22.25,1.74-1.12,1.87-2.48-2-3.1-1.25-3,5.22-3,6-.62,3.11-.5,3.48-1.61,3.6-1.61,4,.25,2.24.25,3.6-.62,2.86.12,3.36A12.63,12.63,0,0,0,78.9,55.55Z"/><path class="cls-4" d="M71.7,61s3-.62,4.1-.12a6.3,6.3,0,0,0,2.86.25c.37,0,.62-2.24,1.74-1.87a38,38,0,0,0,5.58.5s4-4,4.84-4,1-.75,2.24-.75,4.47-1.11,6-.87,1.86-.49,2.11,0,.87,1.49.37,2.11-3.1.62-3.47,1.12a4.74,4.74,0,0,0-.38,2s1.12,1,2,.87,2.36-1,4.22-1.12,1.62-1.49,1.86-.12a4.68,4.68,0,0,1-1.24,3.35c-.37.37-1.36.24-3,1s-4.84.87-6.45,1.24a18.06,18.06,0,0,0-4.47,1.62c-.75.49-1,2.36-2.24,1.86S83.5,66.35,82,66.35s-4.47.37-6.21.25-1.73-1.49-3.1-1.37-3.48-.74-3.1-1.36S71,61,71.7,61Z"/><path class="cls-4" d="M63.44,69.8s-.09-3,1.4-2.33,1.3,1.31,2.79,1.4,3-.37,3.82.19.56,2,1.86,2,2.79-1,3.63-1.21,2.71-.93,4.29-.09,2.42.37,3.63.46a5.19,5.19,0,0,1,2.7.65,7.42,7.42,0,0,0,2.7.66s2.33-.09,3-.19,6-.93,6.43-1.4a12.8,12.8,0,0,1,4.09-1.49,7.46,7.46,0,0,0,2.33-1c.37-.19,1.86-2,2.24-2s2-1.58,2.14-.93.74,2.33.09,3.45A39,39,0,0,1,108,71c-.18.38-1.67.47-2,.93s-2.32,1.4-2.42,1.77-1.49,3-3.26,2.7-4.84-1.67-5.68-1.58a4,4,0,0,0-2,.75c-1,.55-4.19.28-5,.65s-1.68,2.14-1.68,2.14,3.26.65,3.73.84,2.42,0,2.6.84,1.12,2,1.59,2,2.6-1.58,3.16-1.77,3.35-1.49,3.91-1.77a28.79,28.79,0,0,1,4.47-2c.84-.09,3.45-.37,4.38-.37s2-1.21,2.32-.18,1.21,1.21,1.12,2.42-1.67,1.11-2.51,1.77-1.67.28-2.61.65a6.19,6.19,0,0,0-2.51,1.58c-.19.47-3.35,1.21-3.92,1.58s-2.88.75-3,1.12-1.31.84-1.5,1.31.56,2.23.56,2.51,2,.18,3.08,0a12.49,12.49,0,0,0,3.35-.93c.46-.37,2.42-2.15,3-1.87s2.32-.65,2.7-1,1.49-2,2-2,1.76-.93,2.7-.84S117,83.49,117,84a23.31,23.31,0,0,1-.19,3.44,3.41,3.41,0,0,1-3,2c-1.49.09-3.63.28-4.1.74A14.64,14.64,0,0,1,105.8,92c-.84.19-3.35,0-3.72.47a7.83,7.83,0,0,1-2.89,1.49c-.47,0-4.1,0-4.1-.37s-3-2.24-3.44-1.86-3.54,0-3.54,0A16.49,16.49,0,0,0,84.94,93c-.28.37-6.61,2.51-7,3s-4.19,1.86-4.19,1.86-3.07.84-3.35,1.49-3.54,1.4-3.54,1.4-2.42,1.86-3,2.33-2.7,3.26-3.26,2.69S59.8,100,60,99.23s-.75-4.66-.75-4.66S58,93,57.47,93.08s-3.82-.93-3.72-1.58-.56-2.42,0-2.89a7.92,7.92,0,0,1,3-1.21l2.79.74a10.88,10.88,0,0,0,2.51,0,3.54,3.54,0,0,0,1.4-.65c.56-.47-.46-1.21-.56-1.86S60.73,83.39,60.73,83s.37-2.89.75-3A4.42,4.42,0,0,1,65,80.6a14.14,14.14,0,0,0,3.64,2.24,26.07,26.07,0,0,0,2.7,1,4.15,4.15,0,0,0,2.79-.37c.56-.28,2.33-1.31,2.51-2s-.56-3.63-.65-4-.84-1.59-1.86-1.4-1.68.74-2.7.93a3.36,3.36,0,0,1-2.79-.84,8.92,8.92,0,0,0-2.8-1.39c-.93-.38-2-.56-2.42-1.4s-.65-.93-.56-1.58A16.62,16.62,0,0,1,63.44,69.8Z"/><path class="cls-4" d="M84.77,95.31s3-.65,3.63-.18,3.91.37,4.38.46a50.72,50.72,0,0,0,5.4.1c.56-.1,3.35.09,4.28,0s5.77-.47,6.24-.38,4,.38,4.56.75a3.85,3.85,0,0,0,2,.93c.74,0,2.23-1.12,2.79-1.12a16.89,16.89,0,0,0,2.61.56,20.06,20.06,0,0,0,2.33,0c1-.09,2.88-1.12,3.72-.56s2,.47,1.49,1.31-1.58,2.6-2.33,2.88-3-.28-3.53-.28-2.52-.93-3.08-.09-1,.93-2.42,1.86-1.58.28-1.58,1.3,1,3.17.84,3.54a4.34,4.34,0,0,1-2.24,1.12,3.09,3.09,0,0,1-1.77-1.4c-.56-.93-1.12-2-2.7-1.86s-1.95.66-2.23-.18-1.5-1.49-1.5-2-1.39-2.14-1.39-2.14l-1.68-.28s-1.58.55-2.33.74-2.88-.55-3.53-.18-2.24.65-2.52.93a7.28,7.28,0,0,1-2.23,1.12,21.45,21.45,0,0,1-3.17-.38A8.93,8.93,0,0,0,86,101a9.28,9.28,0,0,0-3.07.09c-.29.18-2.24-.19-2.61.18s-1.31.47-1.49,1.21-2.24,2.15-2.33,2.61a7.65,7.65,0,0,1-.37,1.68c-.19.28-1.21.46-1.77.55s-3.17,0-3.17,0-2.33-.28-2.42-.74-1.39-2.7-1.49-3-.56-.28-.56-1,.19-3.45.84-3.73,2.8-2,3.54-2.32S74,95,74.71,95a23.19,23.19,0,0,1,2.61-.28,21.32,21.32,0,0,1,2.33.38,11.23,11.23,0,0,0,3,.18A16.46,16.46,0,0,1,84.77,95.31Z"/><path class="cls-4" d="M91.75,106.21l.29-.08c.93-.25,3.88-1.07,4.28-1.22s1.49-1.5,2.51-1,2.7,1.31,2.61,2.14-1.77,2.52-2,2.89-1.12,1-.93,1.3a6.74,6.74,0,0,0,1.58,2.33,5,5,0,0,0,3.45.19c.56-.28,1.58-2.15,3-1.87s2.23.28,3.26,1.22,1.3,1.39,2,1.39,1.3-.84,2-.18a3.69,3.69,0,0,1,1,3c-.18.84-2,2.32-2.89,2.7s-3.35-.38-4.19.74-3.26,2.52-3.53,3a7.9,7.9,0,0,1-3.54,1.86c-1,.1-3.26-.37-3.54.28A12.91,12.91,0,0,1,95.48,127a4.11,4.11,0,0,0-1.67,1.76c-.47,1.12,0,2-1.31,2.52s-2.88.28-4.28.19a19.49,19.49,0,0,1-3.91-1.22,6.51,6.51,0,0,0-2.8-.28c-.93.28-2.69.28-2.79-.46a5.79,5.79,0,0,1,1-2.8c.55-1,1.3-2.61.55-2.79s-1.21-.84-2.14-.84-2.42-.37-2.7.09,0,.84-1.12.56-1.67-1.49-2.23-1.3-1.77,0-1.87-.66a14.88,14.88,0,0,1,.19-2.32c0-.28-.65-1.22-.1-1.4s1.5-.28,2.24-.47a13.85,13.85,0,0,0,2.33-1.11c.37-.19-.09-.93,1-1.31a17.09,17.09,0,0,1,2.89-.55A3.59,3.59,0,0,1,81,115.7a20.92,20.92,0,0,0,2.7,2.8c.56.46.19.46,1.12.74s1.77-.55,2.33-.28.93.66,2.23,1.31a6.41,6.41,0,0,0,2.71.74c.37,0,.46-1.49,1.58-1.77a5.85,5.85,0,0,0,2.7-1.67c.47-.56-.37-2.52-.65-3s-1.77-3-2.24-2.89-2.7-.74-3.35-.46-2.23-.38-2.61-.28-1.3-.47-2.32-.1-2,1.68-3,1.77a35.49,35.49,0,0,0-4.66.84,26.94,26.94,0,0,0-3.82,1.21,5.07,5.07,0,0,1-2.6.28c-.66-.09-2,.28-2-.56s-.65-.83-.65-.83a3,3,0,0,0-1.68.55c-.65.56-4,1.22-4.28.75s-1.68-2.33-1.59-3a5.37,5.37,0,0,1,.65-2.14c.38-.47,1.4-1.12,1.59-1.49A1.71,1.71,0,0,1,64.65,107c1-.18,2-.46,2.43-.46a21.3,21.3,0,0,1,2.69-.09c.75.09,3.08,0,3.08,0l1.77.18a6.26,6.26,0,0,1,2.32,0,3.19,3.19,0,0,0,1.68.28,3.27,3.27,0,0,0,1.3-.28c.37-.09,2.7-.74,2.7-.74a9.82,9.82,0,0,1,2.8.55c.46.38,1.77.19,2.79.1s1.68-.66,2.42-.56S91.75,106.21,91.75,106.21Z"/><text class="cls-6" transform="translate(203.17 133.38)">OGM</text></g></g></svg>